<svg width="35" height="37" viewBox="0 0 35 37" fill="none" xmlns="http://www.w3.org/2000/svg">
<path d="M33.6308 3.35184H12.7786C12.2053 1.40591 10.5948 0 8.70128 0C6.80774 0 5.19724 1.40591 4.62396 3.35184H1.36909C0.612986 3.35184 0 4.0524 0 4.91651C0 5.78063 0.612986 6.48118 1.36909 6.48118H4.62405C5.19733 8.42711 6.80783 9.83302 8.70137 9.83302C10.5949 9.83302 12.2054 8.42711 12.7787 6.48118H33.6309C34.387 6.48118 35 5.78063 35 4.91651C35 4.0524 34.387 3.35184 33.6308 3.35184ZM8.70128 6.70368C7.83903 6.70368 7.13751 5.90194 7.13751 4.91651C7.13751 3.93108 7.83903 3.12934 8.70128 3.12934C9.56353 3.12934 10.2651 3.93108 10.2651 4.91651C10.2651 5.90194 9.56353 6.70368 8.70128 6.70368Z" fill="black"/>
<path d="M33.6308 16.7596H30.3759C29.8026 14.8136 28.192 13.4077 26.2985 13.4077C24.4051 13.4077 22.7946 14.8136 22.2213 16.7596H1.36909C0.612986 16.7596 0 17.4601 0 18.3242C0 19.1883 0.612986 19.8889 1.36909 19.8889H22.2213C22.7946 21.8348 24.4052 23.2407 26.2986 23.2407C28.1921 23.2407 29.8027 21.8348 30.3759 19.8889H33.6309C34.387 19.8889 35 19.1883 35 18.3242C35 17.4601 34.387 16.7596 33.6308 16.7596ZM26.2986 20.1114C25.4364 20.1114 24.7349 19.3097 24.7349 18.3242C24.7349 17.3388 25.4364 16.5371 26.2986 16.5371C27.1609 16.5371 27.8624 17.3388 27.8624 18.3242C27.8624 19.3097 27.1609 20.1114 26.2986 20.1114Z" fill="black"/>
<path d="M33.6308 30.1668H18.6444C18.0711 28.2209 16.4606 26.8149 14.5671 26.8149C12.6736 26.8149 11.0631 28.2209 10.4898 30.1668H1.36909C0.612986 30.1668 0 30.8673 0 31.7315C0 32.5956 0.612986 33.2961 1.36909 33.2961H10.4898C11.0631 35.2421 12.6736 36.648 14.5671 36.648C16.4606 36.648 18.0711 35.2421 18.6444 33.2961H33.6309C34.387 33.2961 35 32.5956 35 31.7315C35 30.8673 34.387 30.1668 33.6308 30.1668ZM14.5671 33.5187C13.7048 33.5187 13.0033 32.717 13.0033 31.7316C13.0033 30.7461 13.7048 29.9444 14.5671 29.9444C15.4293 29.9444 16.1309 30.746 16.1309 31.7315C16.1309 32.7169 15.4293 33.5187 14.5671 33.5187Z" fill="black"/>
</svg>
